<svg id="Layer_1" data-name="Layer 1" xmlns="http://www.w3.org/2000/svg" viewBox="0 0 35 35"><defs><style>.cls-1{fill:#0078d6;}</style></defs><title>_</title><path class="cls-1" d="M32.27,9.17H20.43V1.61L1.69,4.85V30.07l18.73,3.24V26.1H32.32a1,1,0,0,0,1-1.08V10.25A1,1,0,0,0,32.27,9.17ZM20.43,25V15.74L24,19a.8.8,0,0,0,1.09,0l7.17-6.75V25Zm11.8-14.09-7.62,7.2a.16.16,0,0,1-.19,0l-4-3.74V10.25h11.8ZM15.29,18.55A7.31,7.31,0,0,1,15,19.76a5.89,5.89,0,0,1-.45,1.06,5.24,5.24,0,0,1-.62.9,4.64,4.64,0,0,1-.75.71,3.93,3.93,0,0,1-.84.48,4,4,0,0,1-.92.26,4.84,4.84,0,0,1-2-.11,4,4,0,0,1-.85-.34,4.07,4.07,0,0,1-.75-.52,4.85,4.85,0,0,1-.65-.7,5.37,5.37,0,0,1-.53-.86,5.92,5.92,0,0,1-.38-1A7,7,0,0,1,6.1,18.6,9,9,0,0,1,6,17.43,9.89,9.89,0,0,1,6.1,16.2a7.6,7.6,0,0,1,.22-1.11,6.3,6.3,0,0,1,.37-1,5.69,5.69,0,0,1,.52-.89,4.86,4.86,0,0,1,.67-.76,4.09,4.09,0,0,1,1.68-.93,4.9,4.9,0,0,1,1-.17,4.56,4.56,0,0,1,1,0,3.78,3.78,0,0,1,1.71.72,4.49,4.49,0,0,1,.73.69,5.07,5.07,0,0,1,.6.88,5.83,5.83,0,0,1,.43,1,7.37,7.37,0,0,1,.26,1.18,10.15,10.15,0,0,1,0,2.68Z"/><path class="cls-1" d="M12.78,15.7a4.28,4.28,0,0,0-.21-.66,3.06,3.06,0,0,0-.3-.55,2.34,2.34,0,0,0-.35-.42,1.88,1.88,0,0,0-.41-.29,1.77,1.77,0,0,0-.46-.17,2.11,2.11,0,0,0-.52,0,2.19,2.19,0,0,0-.54.09,1.91,1.91,0,0,0-.48.22,2.1,2.1,0,0,0-.41.34,2.73,2.73,0,0,0-.35.47,3.58,3.58,0,0,0-.27.54,4.56,4.56,0,0,0-.19.62,5.54,5.54,0,0,0-.11.69,7.12,7.12,0,0,0,0,.76,7.45,7.45,0,0,0,0,.81,5.49,5.49,0,0,0,.13.72,4,4,0,0,0,.21.63,3.32,3.32,0,0,0,.3.54,2.72,2.72,0,0,0,.34.41,2.13,2.13,0,0,0,.39.3,1.91,1.91,0,0,0,.44.19,2.12,2.12,0,0,0,.5.08,2.21,2.21,0,0,0,.51,0,1.87,1.87,0,0,0,.46-.15,2,2,0,0,0,.41-.27,2.41,2.41,0,0,0,.36-.39,3,3,0,0,0,.31-.54,3.9,3.9,0,0,0,.22-.64,5.28,5.28,0,0,0,.14-.75,7.47,7.47,0,0,0,0-.86,8.69,8.69,0,0,0,0-.87A6,6,0,0,0,12.78,15.7Z"/></svg>